<?xml version="1.0" encoding="UTF-8" standalone="no"?>
<!-- Generated by graphviz version 2.26.3 (20100126.1600)
 -->

<!-- Title: _anonymous_0 Pages: 1 -->

<svg
   xmlns:osb="http://www.openswatchbook.org/uri/2009/osb"
   xmlns:dc="http://purl.org/dc/elements/1.1/"
   xmlns:cc="http://creativecommons.org/ns#"
   xmlns:rdf="http://www.w3.org/1999/02/22-rdf-syntax-ns#"
   xmlns:svg="http://www.w3.org/2000/svg"
   xmlns="http://www.w3.org/2000/svg"
   xmlns:sodipodi="http://sodipodi.sourceforge.net/DTD/sodipodi-0.dtd"
   xmlns:inkscape="http://www.inkscape.org/namespaces/inkscape"
   width="447.88034"
   height="253.29875"
   viewBox="0 0 358.30427 202.639"
   id="svg2"
   version="1.1"
   inkscape:version="0.48.0 r9654"
   sodipodi:docname="brics_3d_world_model_overview.svg"
   inkscape:export-filename="/home/sblume/my_documents/fh/brics/doc/pics/rsg_shared_overview.png"
   inkscape:export-xdpi="400"
   inkscape:export-ydpi="400">
  <metadata
     id="metadata204">
    <rdf:RDF>
      <cc:Work
         rdf:about="">
        <dc:format>image/svg+xml</dc:format>
        <dc:type
           rdf:resource="http://purl.org/dc/dcmitype/StillImage" />
        <dc:title />
      </cc:Work>
    </rdf:RDF>
  </metadata>
  <defs
     id="defs202">
    <marker
       inkscape:stockid="Arrow2Lend"
       orient="auto"
       refY="0"
       refX="0"
       id="Arrow2Lend"
       style="overflow:visible">
      <path
         id="path6374"
         style="font-size:12px;fill-rule:evenodd;stroke-width:0.625;stroke-linejoin:round"
         d="M 8.7185878,4.0337352 -2.2072895,0.01601326 8.7185884,-4.0017078 c -1.7454984,2.3720609 -1.7354408,5.6174519 -6e-7,8.035443 z"
         transform="matrix(-1.1,0,0,-1.1,-1.1,0)"
         inkscape:connector-curvature="0" />
    </marker>
    <linearGradient
       id="linearGradient6808"
       osb:paint="solid">
      <stop
         style="stop-color:#008080;stop-opacity:1;"
         offset="0"
         id="stop6810" />
    </linearGradient>
    <linearGradient
       id="linearGradient6164"
       osb:paint="solid">
      <stop
         style="stop-color:#d3d3d3;stop-opacity:0.89406782;"
         offset="0"
         id="stop6166" />
    </linearGradient>
    <linearGradient
       id="linearGradient3972"
       osb:paint="gradient">
      <stop
         style="stop-color:#0080be;stop-opacity:1;"
         offset="0"
         id="stop3974" />
      <stop
         style="stop-color:#0080be;stop-opacity:0;"
         offset="1"
         id="stop3976" />
    </linearGradient>
  </defs>
  <sodipodi:namedview
     pagecolor="#ffffff"
     bordercolor="#666666"
     borderopacity="1"
     objecttolerance="10"
     gridtolerance="10"
     guidetolerance="10"
     inkscape:pageopacity="0"
     inkscape:pageshadow="2"
     inkscape:window-width="1680"
     inkscape:window-height="972"
     id="namedview200"
     showgrid="false"
     inkscape:zoom="1"
     inkscape:cx="29.433916"
     inkscape:cy="124.88275"
     inkscape:window-x="0"
     inkscape:window-y="24"
     inkscape:window-maximized="1"
     inkscape:current-layer="svg2"
     fit-margin-top="0.1"
     fit-margin-left="0.1"
     fit-margin-bottom="0.1"
     fit-margin-right="0.1" />
  <g
     class="node"
     id="node1"
     transform="matrix(0.30371424,0,0,0.42708208,59.214507,295.41457)">
    <title
       id="title10">1</title>
    <ellipse
       style="fill:none;stroke:#000000"
       sodipodi:ry="18.3848"
       sodipodi:rx="39.096699"
       sodipodi:cy="-539"
       sodipodi:cx="390"
       d="m 429.0967,-539 c 0,10.15364 -17.50419,18.3848 -39.0967,18.3848 -21.59251,0 -39.0967,-8.23116 -39.0967,-18.3848 0,-10.15364 17.50419,-18.3848 39.0967,-18.3848 21.59251,0 39.0967,8.23116 39.0967,18.3848 z"
       id="ellipse12"
       ry="18.3848"
       rx="39.096699"
       cy="-539"
       cx="390" />
  </g>
  <g
     class="edge"
     id="edge2"
     transform="matrix(0.30371424,0,0,0.42708208,59.214507,295.41457)">
    <title
       id="title42">1-&gt;4</title>
    <path
       style="fill:none;stroke:#000000"
       inkscape:connector-curvature="0"
       id="path44"
       d="m 390,-520.105 c 0,7.598 0,16.772 0,26.14" />
    <polygon
       style="fill:#000000;stroke:#000000"
       id="polygon46"
       points="393.5,-493.788 390,-483.788 386.5,-493.788 393.5,-493.788 " />
  </g>
  <g
     class="edge"
     id="edge10"
     transform="matrix(0.30371424,0,0,0.42708208,40.262747,240.74806)">
    <title
       id="title90">4-&gt;6</title>
    <path
       style="fill:none;stroke:#000000"
       inkscape:connector-curvature="0"
       id="path92"
       d="m 416.45802,-403.83184 c -3.958,12.812 -47.93102,32.33484 -51.85002,45.02284"
       sodipodi:nodetypes="cc" />
    <polygon
       style="fill:#000000;stroke:#000000"
       id="polygon94"
       points="367.863,-357.489 367.863,-357.489 361.567,-348.967 361.175,-359.555 " />
  </g>
  <rect
     style="opacity:0.71923068;fill:#008080;fill-opacity:1;stroke:#000000;stroke-width:0.8805629;stroke-linecap:round;stroke-linejoin:round;stroke-miterlimit:4;stroke-opacity:1;stroke-dasharray:none;stroke-dashoffset:0"
     id="rect3998"
     width="104.64836"
     height="31.022465"
     x="0.52028143"
     y="1.859347" />
  <text
     xml:space="preserve"
     style="font-size:12.80000019px;font-style:normal;font-weight:normal;line-height:125%;letter-spacing:0px;word-spacing:0px;fill:#000000;fill-opacity:1;stroke:none;font-family:Bitstream Vera Sans"
     x="15.084033"
     y="20.281923"
     id="text6930"
     sodipodi:linespacing="125%"><tspan
       sodipodi:role="line"
       id="tspan6932"
       x="15.084033"
       y="20.281923">perception</tspan></text>
  <path
     style="fill:none;stroke:#000000;stroke-width:1.55684721;stroke-linecap:butt;stroke-linejoin:miter;stroke-miterlimit:4;stroke-opacity:1;stroke-dasharray:1.55684721, 1.55684721;stroke-dashoffset:0;marker-end:url(#Arrow2Lend)"
     d="M 119.63632,99.350559 C 78.059827,90.561799 51.732647,76.593879 50.576597,34.770179"
     id="path6941-8"
     inkscape:connector-curvature="0"
     sodipodi:nodetypes="cc" />
  <g
     class="node"
     id="node1-2"
     transform="matrix(0.30371424,0,0,0.42708208,59.051897,327.8655)">
    <title
       id="title10-8">1</title>
    <ellipse
       style="fill:none;stroke:#000000"
       sodipodi:ry="18.3848"
       sodipodi:rx="39.096699"
       sodipodi:cy="-539"
       sodipodi:cx="390"
       d="m 429.0967,-539 c 0,10.15364 -17.50419,18.3848 -39.0967,18.3848 -21.59251,0 -39.0967,-8.23116 -39.0967,-18.3848 0,-10.15364 17.50419,-18.3848 39.0967,-18.3848 21.59251,0 39.0967,8.23116 39.0967,18.3848 z"
       id="ellipse12-4"
       ry="18.3848"
       rx="39.096699"
       cy="-539"
       cx="390" />
  </g>
  <g
     class="node"
     id="node1-9"
     transform="matrix(0.30371424,0,0,0.42708208,25.565097,328.76187)">
    <title
       id="title10-0">1</title>
    <ellipse
       style="fill:none;stroke:#000000"
       sodipodi:ry="18.3848"
       sodipodi:rx="39.096699"
       sodipodi:cy="-539"
       sodipodi:cx="390"
       d="m 429.0967,-539 c 0,10.15364 -17.50419,18.3848 -39.0967,18.3848 -21.59251,0 -39.0967,-8.23116 -39.0967,-18.3848 0,-10.15364 17.50419,-18.3848 39.0967,-18.3848 21.59251,0 39.0967,8.23116 39.0967,18.3848 z"
       id="ellipse12-5"
       ry="18.3848"
       rx="39.096699"
       cy="-539"
       cx="390" />
  </g>
  <g
     class="node"
     id="node1-6"
     transform="matrix(0.30371424,0,0,0.42708208,93.059147,328.76187)">
    <title
       id="title10-05">1</title>
    <ellipse
       style="fill:none;stroke:#000000"
       sodipodi:ry="18.3848"
       sodipodi:rx="39.096699"
       sodipodi:cy="-539"
       sodipodi:cx="390"
       d="m 429.0967,-539 c 0,10.15364 -17.50419,18.3848 -39.0967,18.3848 -21.59251,0 -39.0967,-8.23116 -39.0967,-18.3848 0,-10.15364 17.50419,-18.3848 39.0967,-18.3848 21.59251,0 39.0967,8.23116 39.0967,18.3848 z"
       id="ellipse12-1"
       ry="18.3848"
       rx="39.096699"
       cy="-539"
       cx="390" />
  </g>
  <g
     class="node"
     id="node1-6-4"
     transform="matrix(0.30371424,0,0,0.42708208,14.983077,360.6973)">
    <title
       id="title10-05-7">1</title>
    <ellipse
       style="fill:none;stroke:#000000"
       sodipodi:ry="18.3848"
       sodipodi:rx="39.096699"
       sodipodi:cy="-539"
       sodipodi:cx="390"
       d="m 429.0967,-539 c 0,10.15364 -17.50419,18.3848 -39.0967,18.3848 -21.59251,0 -39.0967,-8.23116 -39.0967,-18.3848 0,-10.15364 17.50419,-18.3848 39.0967,-18.3848 21.59251,0 39.0967,8.23116 39.0967,18.3848 z"
       id="ellipse12-1-7"
       ry="18.3848"
       rx="39.096699"
       cy="-539"
       cx="390" />
  </g>
  <g
     class="node"
     id="node1-6-6"
     transform="matrix(0.30371424,0,0,0.42708208,45.234197,359.93354)">
    <title
       id="title10-05-73">1</title>
    <ellipse
       style="fill:none;stroke:#000000"
       sodipodi:ry="18.3848"
       sodipodi:rx="39.096699"
       sodipodi:cy="-539"
       sodipodi:cx="390"
       d="m 429.0967,-539 c 0,10.15364 -17.50419,18.3848 -39.0967,18.3848 -21.59251,0 -39.0967,-8.23116 -39.0967,-18.3848 0,-10.15364 17.50419,-18.3848 39.0967,-18.3848 21.59251,0 39.0967,8.23116 39.0967,18.3848 z"
       id="ellipse12-1-79"
       ry="18.3848"
       rx="39.096699"
       cy="-539"
       cx="390" />
  </g>
  <g
     class="node"
     id="node1-6-1"
     transform="matrix(0.30371424,0,0,0.42708208,74.267627,359.6321)">
    <title
       id="title10-05-6">1</title>
    <ellipse
       style="fill:none;stroke:#000000"
       sodipodi:ry="18.3848"
       sodipodi:rx="39.096699"
       sodipodi:cy="-539"
       sodipodi:cx="390"
       d="m 429.0967,-539 c 0,10.15364 -17.50419,18.3848 -39.0967,18.3848 -21.59251,0 -39.0967,-8.23116 -39.0967,-18.3848 0,-10.15364 17.50419,-18.3848 39.0967,-18.3848 21.59251,0 39.0967,8.23116 39.0967,18.3848 z"
       id="ellipse12-1-3"
       ry="18.3848"
       rx="39.096699"
       cy="-539"
       cx="390" />
  </g>
  <g
     class="node"
     id="node1-6-49"
     transform="matrix(0.30371424,0,0,0.42708208,104.85887,359.45528)">
    <title
       id="title10-05-8">1</title>
    <ellipse
       style="fill:none;stroke:#000000"
       sodipodi:ry="18.3848"
       sodipodi:rx="39.096699"
       sodipodi:cy="-539"
       sodipodi:cx="390"
       d="m 429.0967,-539 c 0,10.15364 -17.50419,18.3848 -39.0967,18.3848 -21.59251,0 -39.0967,-8.23116 -39.0967,-18.3848 0,-10.15364 17.50419,-18.3848 39.0967,-18.3848 21.59251,0 39.0967,8.23116 39.0967,18.3848 z"
       id="ellipse12-1-5"
       ry="18.3848"
       rx="39.096699"
       cy="-539"
       cx="390" />
  </g>
  <g
     class="edge"
     id="edge10-6"
     transform="matrix(-0.30371424,0,0,0.42708208,314.89847,241.0732)">
    <title
       id="title90-0">4-&gt;6</title>
    <path
       style="fill:none;stroke:#000000"
       inkscape:connector-curvature="0"
       id="path92-9"
       d="m 416.45802,-403.83184 c -3.958,12.812 -47.93102,32.33484 -51.85002,45.02284"
       sodipodi:nodetypes="cc" />
    <polygon
       style="fill:#000000;stroke:#000000"
       id="polygon94-8"
       points="361.175,-359.555 367.863,-357.489 367.863,-357.489 361.567,-348.967 " />
  </g>
  <g
     class="node"
     id="node1-6-49-7"
     transform="matrix(0.30371424,0,0,0.42708208,93.624977,390.42188)">
    <title
       id="title10-05-8-9">1</title>
    <ellipse
       style="fill:none;stroke:#000000"
       sodipodi:ry="18.3848"
       sodipodi:rx="39.096699"
       sodipodi:cy="-539"
       sodipodi:cx="390"
       d="m 429.0967,-539 c 0,10.15364 -17.50419,18.3848 -39.0967,18.3848 -21.59251,0 -39.0967,-8.23116 -39.0967,-18.3848 0,-10.15364 17.50419,-18.3848 39.0967,-18.3848 21.59251,0 39.0967,8.23116 39.0967,18.3848 z"
       id="ellipse12-1-5-2"
       ry="18.3848"
       rx="39.096699"
       cy="-539"
       cx="390" />
  </g>
  <g
     class="edge"
     id="edge10-4"
     transform="matrix(0.30371424,0,0,0.42708208,25.370057,270.87821)">
    <title
       id="title90-04">4-&gt;6</title>
    <path
       style="fill:none;stroke:#000000"
       inkscape:connector-curvature="0"
       id="path92-6"
       d="m 383.69829,-384.56141 c -3.958,12.812 -15.17129,13.06441 -19.09029,25.75241"
       sodipodi:nodetypes="cc" />
    <polygon
       style="fill:#000000;stroke:#000000"
       id="polygon94-83"
       points="367.863,-357.489 361.567,-348.967 361.175,-359.555 367.863,-357.489 " />
  </g>
  <g
     class="edge"
     id="edge10-6-1"
     transform="matrix(-0.30371424,0,0,0.42708208,333.79304,270.10647)">
    <title
       id="title90-0-6">4-&gt;6</title>
    <path
       style="fill:none;stroke:#000000"
       inkscape:connector-curvature="0"
       id="path92-9-7"
       d="m 390.03,-383.46024 c -3.958,12.812 -21.503,11.96324 -25.422,24.65124"
       sodipodi:nodetypes="cc" />
    <polygon
       style="fill:#000000;stroke:#000000"
       id="polygon94-8-3"
       points="361.567,-348.967 361.175,-359.555 367.863,-357.489 367.863,-357.489 " />
  </g>
  <g
     class="edge"
     id="edge10-6-7"
     transform="matrix(-0.30371424,0,0,0.42708208,301.14364,271.00284)">
    <title
       id="title90-0-5">4-&gt;6</title>
    <path
       style="fill:none;stroke:#000000"
       inkscape:connector-curvature="0"
       id="path92-9-1"
       d="m 391.95705,-389.24137 c -3.958,12.812 -23.43005,17.74437 -27.34905,30.43237"
       sodipodi:nodetypes="cc" />
    <polygon
       style="fill:#000000;stroke:#000000"
       id="polygon94-8-8"
       points="361.567,-348.967 361.175,-359.555 367.863,-357.489 367.863,-357.489 " />
  </g>
  <g
     class="edge"
     id="edge10-4-7"
     transform="matrix(0.30371424,0,0,0.42708208,53.828907,270.7456)">
    <title
       id="title90-04-4">4-&gt;6</title>
    <path
       style="fill:none;stroke:#000000"
       inkscape:connector-curvature="0"
       id="path92-6-4"
       d="m 393.88409,-387.86491 c -3.958,12.812 -25.35709,16.36791 -29.27609,29.05591"
       sodipodi:nodetypes="cc" />
    <polygon
       style="fill:#000000;stroke:#000000"
       id="polygon94-83-8"
       points="361.567,-348.967 361.175,-359.555 367.863,-357.489 367.863,-357.489 " />
  </g>
  <g
     class="edge"
     id="edge10-4-1"
     transform="matrix(0.30371424,0,0,0.42708208,85.909407,270.10647)">
    <title
       id="title90-04-2">4-&gt;6</title>
    <path
       style="fill:none;stroke:#000000"
       inkscape:connector-curvature="0"
       id="path92-6-7"
       d="m 397.18759,-384.56141 c -3.958,12.812 -28.66059,13.06441 -32.57959,25.75241"
       sodipodi:nodetypes="cc" />
    <polygon
       style="fill:#000000;stroke:#000000"
       id="polygon94-83-6"
       points="361.567,-348.967 361.175,-359.555 367.863,-357.489 367.863,-357.489 " />
  </g>
  <g
     class="edge"
     id="edge10-4-76"
     transform="matrix(0.30371424,0,0,0.42708208,102.25987,301.05712)">
    <title
       id="title90-04-44">4-&gt;6</title>
    <path
       style="fill:none;stroke:#000000"
       inkscape:connector-curvature="0"
       id="path92-6-5"
       d="m 400.49109,-383.18495 c -3.958,12.812 -31.96409,11.68795 -35.88309,24.37595"
       sodipodi:nodetypes="cc" />
    <polygon
       style="fill:#000000;stroke:#000000"
       id="polygon94-83-2"
       points="361.175,-359.555 367.863,-357.489 367.863,-357.489 361.567,-348.967 " />
  </g>
  <text
     xml:space="preserve"
     style="font-size:12.80000019px;font-style:normal;font-weight:normal;line-height:125%;letter-spacing:0px;word-spacing:0px;fill:#000000;fill-opacity:1;stroke:none;font-family:Bitstream Vera Sans"
     x="140.38756"
     y="50.291798"
     id="text4389"
     sodipodi:linespacing="125%"><tspan
       sodipodi:role="line"
       id="tspan4391"
       x="140.38756"
       y="50.291798">scene graph</tspan></text>
  <text
     xml:space="preserve"
     style="font-size:32px;font-style:normal;font-weight:normal;line-height:125%;letter-spacing:0px;word-spacing:0px;fill:#000000;fill-opacity:1;stroke:none;font-family:Bitstream Vera Sans"
     x="479.34851"
     y="-18.463346"
     id="text4428"
     sodipodi:linespacing="125%"><tspan
       sodipodi:role="line"
       id="tspan4430"
       x="479.34851"
       y="-18.463346" /></text>
  <rect
     style="opacity:0.71923068;fill:#003780;fill-opacity:1;stroke:#000000;stroke-width:0.8805629;stroke-linecap:round;stroke-linejoin:round;stroke-miterlimit:4;stroke-opacity:1;stroke-dasharray:none;stroke-dashoffset:0"
     id="rect3998-0"
     width="104.64836"
     height="31.022465"
     x="253.13564"
     y="0.52028143" />
  <text
     xml:space="preserve"
     style="font-size:12.80000019px;font-style:normal;font-weight:normal;line-height:125%;letter-spacing:0px;word-spacing:0px;fill:#000000;fill-opacity:1;stroke:none;font-family:Bitstream Vera Sans"
     x="278.57925"
     y="18.942858"
     id="text6930-9"
     sodipodi:linespacing="125%"><tspan
       sodipodi:role="line"
       id="tspan6932-6"
       x="278.57925"
       y="18.942858">planinng</tspan></text>
  <rect
     style="opacity:0.71923068;fill:#e74133;fill-opacity:1;stroke:#000000;stroke-width:0.8805629;stroke-linecap:round;stroke-linejoin:round;stroke-miterlimit:4;stroke-opacity:1;stroke-dasharray:none;stroke-dashoffset:0"
     id="rect3998-9"
     width="104.64836"
     height="31.022465"
     x="251.10506"
     y="171.09625" />
  <text
     xml:space="preserve"
     style="font-size:12.80000019px;font-style:normal;font-weight:normal;line-height:125%;letter-spacing:0px;word-spacing:0px;fill:#000000;fill-opacity:1;stroke:none;font-family:Bitstream Vera Sans"
     x="263.74887"
     y="189.51886"
     id="text6930-8"
     sodipodi:linespacing="125%"><tspan
       sodipodi:role="line"
       id="tspan6932-0"
       x="263.74887"
       y="189.51886">coordination</tspan></text>
  <rect
     style="opacity:0.71923068;fill:#d2ee36;fill-opacity:1;stroke:#000000;stroke-width:0.8805629;stroke-linecap:round;stroke-linejoin:round;stroke-miterlimit:4;stroke-opacity:1;stroke-dasharray:none;stroke-dashoffset:0"
     id="rect3998-1"
     width="104.64836"
     height="31.022465"
     x="3.962115"
     y="167.61511" />
  <text
     xml:space="preserve"
     style="font-size:12.80000019px;font-style:normal;font-weight:normal;line-height:125%;letter-spacing:0px;word-spacing:0px;fill:#000000;fill-opacity:1;stroke:none;font-family:Bitstream Vera Sans"
     x="31.965837"
     y="186.03769"
     id="text6930-99"
     sodipodi:linespacing="125%"><tspan
       sodipodi:role="line"
       id="tspan6932-5"
       x="31.965837"
       y="186.03769">control</tspan></text>
  <flowRoot
     xml:space="preserve"
     id="flowRoot4478"
     style="font-size:40px;font-style:normal;font-weight:normal;line-height:125%;letter-spacing:0px;word-spacing:0px;fill:#000000;fill-opacity:1;stroke:none;font-family:Bitstream Vera Sans"
     transform="translate(-277.49235,-171.78262)"><flowRegion
       id="flowRegion4480"><rect
         id="rect4482"
         width="714.40485"
         height="214.12679"
         x="735.8175"
         y="8.668025" /></flowRegion><flowPara
       id="flowPara4484" /></flowRoot>  <path
     style="fill:none;stroke:#000000;stroke-width:1.55684721;stroke-linecap:butt;stroke-linejoin:miter;stroke-miterlimit:4;stroke-opacity:1;stroke-dasharray:1.55684721, 1.55684721;stroke-dashoffset:0;marker-end:url(#Arrow2Lend)"
     d="m 68.726257,33.353719 c 48.746093,9.27576 49.827133,25.83064 67.358513,50.03585"
     id="path6941-8-2"
     inkscape:connector-curvature="0"
     sodipodi:nodetypes="cc" />
  <path
     style="fill:none;stroke:#000000;stroke-width:1.55684721;stroke-linecap:butt;stroke-linejoin:miter;stroke-miterlimit:4;stroke-opacity:1;stroke-dasharray:1.55684721, 1.55684721;stroke-dashoffset:0;marker-end:url(#Arrow2Lend)"
     d="m 233.17563,142.98664 c 1.4046,9.27576 29.27096,15.2411 39.95028,23.87345"
     id="path6941-8-8"
     inkscape:connector-curvature="0"
     sodipodi:nodetypes="cc" />
  <path
     style="fill:none;stroke:#000000;stroke-width:1.55684721;stroke-linecap:butt;stroke-linejoin:miter;stroke-miterlimit:4;stroke-opacity:1;stroke-dasharray:1.55684721, 1.55684721;stroke-dashoffset:0;marker-end:url(#Arrow2Lend)"
     d="m 108.59278,182.85316 c 28.81282,-3.80544 40.48341,-7.80674 53.03148,-39.0409"
     id="path6941-8-3"
     inkscape:connector-curvature="0"
     sodipodi:nodetypes="cc" />
  <path
     style="fill:none;stroke:#000000;stroke-width:1.55684721;stroke-linecap:butt;stroke-linejoin:miter;stroke-miterlimit:4;stroke-opacity:1;stroke-dasharray:1.55684721, 1.55684721;stroke-dashoffset:0;marker-end:url(#Arrow2Lend)"
     d="m 311.14476,32.953819 c 14.79117,46.16361 -34.25427,57.01696 -78.57097,60.84289"
     id="path6941-8-4"
     inkscape:connector-curvature="0"
     sodipodi:nodetypes="cc" />
  <path
     style="fill:none;stroke:#000000;stroke-width:1.55684721;stroke-linecap:butt;stroke-linejoin:miter;stroke-miterlimit:4;stroke-opacity:1;stroke-dasharray:1.55684721, 1.55684721;stroke-dashoffset:0;marker-end:url(#Arrow2Lend)"
     d="m 205.76741,76.334809 c 10.74831,-30.59075 34.25427,-24.62542 72.96473,-42.15546"
     id="path6941-8-81"
     inkscape:connector-curvature="0"
     sodipodi:nodetypes="cc" />
  <path
     style="fill:none;stroke:#000000;stroke-width:1.55684721;stroke-linecap:butt;stroke-linejoin:miter;stroke-miterlimit:4;stroke-opacity:1;stroke-dasharray:1.55684721, 1.55684721;stroke-dashoffset:0;marker-end:url(#Arrow2Lend)"
     d="m 330.97318,168.52613 c 5.765,-47.40945 -1.25184,-50.78782 -87.74715,-47.76169"
     id="path6941-8-49"
     inkscape:connector-curvature="0"
     sodipodi:nodetypes="cc" />
  <path
     style="fill:none;stroke:#000000;stroke-width:1.55684721;stroke-linecap:butt;stroke-linejoin:miter;stroke-miterlimit:4;stroke-opacity:1;stroke-dasharray:1.55684721, 1.55684721;stroke-dashoffset:0;marker-end:url(#Arrow2Lend)"
     d="m 113.22593,136.47324 c -47.804443,1.06692 -53.785813,1.37771 -74.043043,29.47967"
     id="path6941-8-3-8"
     inkscape:connector-curvature="0"
     sodipodi:nodetypes="cc" />
</svg>
